{"asset":{"version":"2.0","generator":"VECTARY"},"nodes":[{"translation":[0,0,0],"scale":[0.001,0.001,0.001],"rotation":[-0.7071067811865475,0,0,0.7071067811865476],"name":"Box","mesh":0}],"materials":[{"pbrMetallicRoughness":{"baseColorFactor":[0.8670237934377415,0.8670237934377415,0.8670237934377415,1],"metallicFactor":0,"roughnessFactor":0.2},"name":"Nautico","emissiveFactor":[0,0,0],"alphaMode":"OPAQUE","doubleSided":false}],"meshes":[{"primitives":[{"mode":4,"attributes":{"POSITION":1,"NORMAL":2},"material":0,"indices":0}]}],"accessors":[{"bufferView":0,"byteOffset":0,"componentType":5125,"count":2916,"type":"SCALAR"},{"bufferView":1,"byteOffset":0,"componentType":5126,"count":488,"max":[56.02910232543945,47.42446517944336,100],"min":[-49.74878692626953,-167.260009765625,0],"type":"VEC3"},{"bufferView":2,"byteOffset":0,"componentType":5126,"count":488,"type":"VEC3"}],"bufferViews":[{"buffer":0,"byteOffset":0,"byteLength":11664,"target":34963},{"buffer":0,"byteOffset":11664,"byteLength":5856,"target":34962},{"buffer":0,"byteOffset":17520,"byteLength":5856,"target":34962}],"scene":0,"scenes":[{"nodes":[0],"name":"cube"}],"extensionsUsed":["KHR_texture_transform"],"buffers":[{"byteLength":23376,"uri":"cube.bin"}]}