{
    "asset" : {
        "generator" : "Khronos glTF Blender I/O v1.5.17",
        "version" : "2.0"
    },
    "scene" : 0,
    "scenes" : [
        {
            "name" : "Scene",
            "nodes" : [
                0,
                1,
                2,
                3
            ]
        }
    ],
    "nodes" : [
        {
            "name" : "Camera.001",
            "rotation" : [
                -0.6772439479827881,
                -0.0004775590787176043,
                0.000439579103840515,
                -0.7357583045959473
            ],
            "translation" : [
                -2.6978631019592285,
                0.6412800550460815,
                69.27801513671875
            ]
        },
        {
            "mesh" : 0,
            "name" : "soplya"
        },
        {
            "name" : "Light",
            "rotation" : [
                0.16907575726509094,
                0.7558803558349609,
                -0.27217137813568115,
                0.570947527885437
            ],
            "translation" : [
                4.076245307922363,
                5.903861999511719,
                -1.0054539442062378
            ]
        },
        {
            "name" : "Camera",
            "rotation" : [
                0.483536034822464,
                0.33687159419059753,
                -0.20870360732078552,
                0.7804827094078064
            ],
            "translation" : [
                7.358891487121582,
                4.958309173583984,
                6.925790786743164
            ]
        }
    ],
    "materials" : [
        {
            "doubleSided" : true,
            "name" : "Material.001",
            "pbrMetallicRoughness" : {}
        }
    ],
    "meshes" : [
        {
            "name" : "Mesh_0",
            "primitives" : [
                {
                    "attributes" : {
                        "POSITION" : 0,
                        "NORMAL" : 1
                    },
                    "indices" : 2,
                    "material" : 0
                }
            ]
        }
    ],
    "accessors" : [
        {
            "bufferView" : 0,
            "componentType" : 5126,
            "count" : 20562,
            "max" : [
                21.25873565673828,
                17.405344009399414,
                1.6544560194015503
            ],
            "min" : [
                -27.196537017822266,
                -30.946081161499023,
                -6.656180381774902
            ],
            "type" : "VEC3"
        },
        {
            "bufferView" : 1,
            "componentType" : 5126,
            "count" : 20562,
            "type" : "VEC3"
        },
        {
            "bufferView" : 2,
            "componentType" : 5123,
            "count" : 123336,
            "type" : "SCALAR"
        }
    ],
    "bufferViews" : [
        {
            "buffer" : 0,
            "byteLength" : 246744,
            "byteOffset" : 0
        },
        {
            "buffer" : 0,
            "byteLength" : 246744,
            "byteOffset" : 246744
        },
        {
            "buffer" : 0,
            "byteLength" : 246672,
            "byteOffset" : 493488
        }
    ],
    "buffers" : [
        {
            "byteLength" : 740160,
            "uri" : "logo.bin"
        }
    ]
}
