{
    "asset" : {
        "generator" : "Khronos glTF Blender I/O v1.3.48",
        "version" : "2.0"
    },
    "scene" : 0,
    "scenes" : [
        {
            "name" : "Scene",
            "nodes" : [
                0
            ]
        }
    ],
    "nodes" : [
        {
            "mesh" : 0,
            "name" : "FaceBuilderHead"
        }
    ],
    "materials" : [
        {
            "doubleSided" : true,
            "name" : "Material.001",
            "pbrMetallicRoughness" : {}
        }
    ],
    "meshes" : [
        {
            "name" : "FaceBuilderHead_mesh",
            "primitives" : [
                {
                    "attributes" : {
                        "POSITION" : 0,
                        "NORMAL" : 1,
                        "TEXCOORD_0" : 2
                    },
                    "indices" : 3,
                    "material" : 0
                }
            ]
        }
    ],
    "accessors" : [
        {
            "bufferView" : 0,
            "componentType" : 5126,
            "count" : 17071,
            "max" : [
                0.838600754737854,
                1.1899230480194092,
                1.2763383388519287
            ],
            "min" : [
                -0.8581103086471558,
                -0.9333842396736145,
                -0.6108818650245667
            ],
            "type" : "VEC3"
        },
        {
            "bufferView" : 1,
            "componentType" : 5126,
            "count" : 17071,
            "type" : "VEC3"
        },
        {
            "bufferView" : 2,
            "componentType" : 5126,
            "count" : 17071,
            "type" : "VEC2"
        },
        {
            "bufferView" : 3,
            "componentType" : 5123,
            "count" : 101778,
            "type" : "SCALAR"
        }
    ],
    "bufferViews" : [
        {
            "buffer" : 0,
            "byteLength" : 204852,
            "byteOffset" : 0
        },
        {
            "buffer" : 0,
            "byteLength" : 204852,
            "byteOffset" : 204852
        },
        {
            "buffer" : 0,
            "byteLength" : 136568,
            "byteOffset" : 409704
        },
        {
            "buffer" : 0,
            "byteLength" : 203556,
            "byteOffset" : 546272
        }
    ],
    "buffers" : [
        {
            "byteLength" : 749828,
            "uri" : "myhead4.bin"
        }
    ]
}
