{
    "asset" : {
        "generator" : "Khronos glTF Blender I/O v1.3.48",
        "version" : "2.0"
    },
    "scene" : 0,
    "scenes" : [
        {
            "name" : "Scen",
            "nodes" : [
                0
            ]
        }
    ],
    "nodes" : [
        {
            "mesh" : 0,
            "name" : "phone",
            "scale" : [
                -0.037882205098867416,
                -0.12870976328849792,
                -0.037882205098867416
            ],
            "translation" : [
                0.993396520614624,
                1.2053301334381104,
                0.059640586376190186
            ]
        }
    ],
    "materials" : [
        {
            "doubleSided" : true,
            "emissiveFactor" : [
                0,
                0,
                0
            ],
            "name" : "Material.003",
            "pbrMetallicRoughness" : {
                "baseColorFactor" : [
                    0.0677986666560173,
                    0.05714971572160721,
                    0.05907582864165306,
                    1
                ],
                "metallicFactor" : 0,
                "roughnessFactor" : 0.5
            }
        },
        {
            "doubleSided" : true,
            "emissiveFactor" : [
                0,
                0,
                0
            ],
            "name" : "Material.002",
            "pbrMetallicRoughness" : {
                "baseColorFactor" : [
                    0.009450875222682953,
                    0.005284599494189024,
                    0.0010634628124535084,
                    1
                ],
                "metallicFactor" : 0,
                "roughnessFactor" : 0.5
            }
        },
        {
            "doubleSided" : true,
            "emissiveFactor" : [
                0,
                0,
                0
            ],
            "name" : "Material.001",
            "pbrMetallicRoughness" : {
                "baseColorTexture" : {
                    "index" : 0,
                    "texCoord" : 0
                },
                "metallicFactor" : 0,
                "roughnessFactor" : 0.5
            }
        }
    ],
    "meshes" : [
        {
            "name" : "Cube.001",
            "primitives" : [
                {
                    "attributes" : {
                        "POSITION" : 0,
                        "NORMAL" : 1,
                        "TEXCOORD_0" : 2
                    },
                    "indices" : 3,
                    "material" : 0
                },
                {
                    "attributes" : {
                        "POSITION" : 4,
                        "NORMAL" : 5,
                        "TEXCOORD_0" : 6
                    },
                    "indices" : 7,
                    "material" : 1
                },
                {
                    "attributes" : {
                        "POSITION" : 8,
                        "NORMAL" : 9,
                        "TEXCOORD_0" : 10
                    },
                    "indices" : 11,
                    "material" : 2
                }
            ]
        }
    ],
    "textures" : [
        {
            "source" : 0
        }
    ],
    "images" : [
        {
            "mimeType" : "image/jpeg",
            "name" : "phone",
            "uri" : "phone.jpg"
        }
    ],
    "accessors" : [
        {
            "bufferView" : 0,
            "componentType" : 5126,
            "count" : 10128,
            "max" : [
                1,
                3.981776714324951,
                1
            ],
            "min" : [
                -1,
                -1,
                -1
            ],
            "type" : "VEC3"
        },
        {
            "bufferView" : 1,
            "componentType" : 5126,
            "count" : 10128,
            "type" : "VEC3"
        },
        {
            "bufferView" : 2,
            "componentType" : 5126,
            "count" : 10128,
            "type" : "VEC2"
        },
        {
            "bufferView" : 3,
            "componentType" : 5123,
            "count" : 16200,
            "type" : "SCALAR"
        },
        {
            "bufferView" : 4,
            "componentType" : 5126,
            "count" : 780,
            "max" : [
                52.62091827392578,
                23.81583023071289,
                1.5743705034255981
            ],
            "min" : [
                -0.1743183135986328,
                -5.086403846740723,
                -1.5960811376571655
            ],
            "type" : "VEC3"
        },
        {
            "bufferView" : 5,
            "componentType" : 5126,
            "count" : 780,
            "type" : "VEC3"
        },
        {
            "bufferView" : 6,
            "componentType" : 5126,
            "count" : 780,
            "type" : "VEC2"
        },
        {
            "bufferView" : 7,
            "componentType" : 5123,
            "count" : 1254,
            "type" : "SCALAR"
        },
        {
            "bufferView" : 8,
            "componentType" : 5126,
            "count" : 60,
            "max" : [
                49.9617919921875,
                21.919057846069336,
                -1.5960749387741089
            ],
            "min" : [
                2.484804153442383,
                -4.490963935852051,
                -1.5960763692855835
            ],
            "type" : "VEC3"
        },
        {
            "bufferView" : 9,
            "componentType" : 5126,
            "count" : 60,
            "type" : "VEC3"
        },
        {
            "bufferView" : 10,
            "componentType" : 5126,
            "count" : 60,
            "type" : "VEC2"
        },
        {
            "bufferView" : 11,
            "componentType" : 5123,
            "count" : 174,
            "type" : "SCALAR"
        }
    ],
    "bufferViews" : [
        {
            "buffer" : 0,
            "byteLength" : 121536,
            "byteOffset" : 0
        },
        {
            "buffer" : 0,
            "byteLength" : 121536,
            "byteOffset" : 121536
        },
        {
            "buffer" : 0,
            "byteLength" : 81024,
            "byteOffset" : 243072
        },
        {
            "buffer" : 0,
            "byteLength" : 32400,
            "byteOffset" : 324096
        },
        {
            "buffer" : 0,
            "byteLength" : 9360,
            "byteOffset" : 356496
        },
        {
            "buffer" : 0,
            "byteLength" : 9360,
            "byteOffset" : 365856
        },
        {
            "buffer" : 0,
            "byteLength" : 6240,
            "byteOffset" : 375216
        },
        {
            "buffer" : 0,
            "byteLength" : 2508,
            "byteOffset" : 381456
        },
        {
            "buffer" : 0,
            "byteLength" : 720,
            "byteOffset" : 383964
        },
        {
            "buffer" : 0,
            "byteLength" : 720,
            "byteOffset" : 384684
        },
        {
            "buffer" : 0,
            "byteLength" : 480,
            "byteOffset" : 385404
        },
        {
            "buffer" : 0,
            "byteLength" : 348,
            "byteOffset" : 385884
        }
    ],
    "buffers" : [
        {
            "byteLength" : 386232,
            "uri" : "untitled.bin"
        }
    ]
}
