{"asset":{"version":"2.0","generator":"VECTARY"},"nodes":[{"translation":[0,-2.524354896707238e-32,1.247890679678676e-16],"scale":[0.001,0.001,0.001],"rotation":[-0.7071067811865475,0,0,0.7071067811865476],"name":"sert","children":[1,2]},{"translation":[0,1.247890679678676e-13,0],"scale":[3.211009174311926,0.1,3.152173913043478],"rotation":[0,0,0,1],"name":"Box 1","mesh":0},{"translation":[-4.765178054984835,-5.000000000000103,214.98576880523262],"scale":[1.7188679245283036,1.7188679245283032,1.7188679245283032],"rotation":[0.7071067811865475,0,0,0.7071067811865476],"name":"logo_silver","mesh":1}],"materials":[{"pbrMetallicRoughness":{"baseColorFactor":[0,0,0,1],"metallicRoughnessTexture":{"index":1,"extensions":{"KHR_texture_transform":{"offset":[0,0],"scale":[1,1],"rotation":0}},"texCoord":0},"metallicFactor":0,"roughnessFactor":1},"name":"Subsurface Textured 1","normalTexture":{"index":0,"scale":1,"extensions":{"KHR_texture_transform":{"offset":[0,0],"scale":[1,1],"rotation":0}},"texCoord":0},"emissiveFactor":[0,0,0],"extensions":{},"alphaMode":"OPAQUE","doubleSided":false},{"pbrMetallicRoughness":{"baseColorFactor":[1,1,1,1],"baseColorTexture":{"index":2,"extensions":{"KHR_texture_transform":{"offset":[0,0],"scale":[1,1],"rotation":0}},"texCoord":0},"metallicFactor":0,"roughnessFactor":0.2},"name":"Hidden Paradise","emissiveTexture":{"index":3,"extensions":{"KHR_texture_transform":{"offset":[0,0],"scale":[1,1],"rotation":0}},"texCoord":0},"emissiveFactor":[0,0,0],"extensions":{},"alphaMode":"BLEND","doubleSided":false}],"textures":[{"sampler":0,"source":0},{"sampler":0,"source":1},{"sampler":0,"source":2},{"sampler":0,"source":3}],"images":[{"uri":"Plastic_005_NormalMap.jpg","mimeType":"image/jpeg"},{"uri":"metallicTexture&Plastic_005_Roughness.jpg","mimeType":"image/jpeg"},{"uri":"logo_silver&logo_silver.png","mimeType":"image/png"},{"uri":"logo_silver.png","mimeType":"image/png"}],"samplers":[{"wrapS":10497,"wrapT":10497}],"meshes":[{"primitives":[{"mode":4,"attributes":{"POSITION":1,"NORMAL":2,"TEXCOORD_0":3},"material":0,"indices":0}]},{"primitives":[{"mode":4,"attributes":{"POSITION":5,"NORMAL":6,"TEXCOORD_0":7},"material":1,"indices":4}]}],"accessors":[{"bufferView":0,"byteOffset":0,"componentType":5125,"count":2916,"type":"SCALAR"},{"bufferView":1,"byteOffset":0,"componentType":5126,"count":596,"max":[109,50,138],"min":[-109,-50,0],"type":"VEC3"},{"bufferView":2,"byteOffset":0,"componentType":5126,"count":596,"type":"VEC3"},{"bufferView":3,"byteOffset":0,"componentType":5126,"count":596,"type":"VEC2"},{"bufferView":4,"byteOffset":0,"componentType":5125,"count":6,"type":"SCALAR"},{"bufferView":5,"byteOffset":0,"componentType":5126,"count":4,"max":[128,58.053096771240234,0],"min":[-128,-58.053096771240234,0],"type":"VEC3"},{"bufferView":6,"byteOffset":0,"componentType":5126,"count":4,"type":"VEC3"},{"bufferView":7,"byteOffset":0,"componentType":5126,"count":4,"type":"VEC2"}],"bufferViews":[{"buffer":0,"byteOffset":0,"byteLength":11664,"target":34963},{"buffer":0,"byteOffset":11664,"byteLength":7152,"target":34962},{"buffer":0,"byteOffset":18816,"byteLength":7152,"target":34962},{"buffer":0,"byteOffset":25968,"byteLength":4768,"target":34962},{"buffer":0,"byteOffset":30736,"byteLength":24,"target":34963},{"buffer":0,"byteOffset":30760,"byteLength":48,"target":34962},{"buffer":0,"byteOffset":30808,"byteLength":48,"target":34962},{"buffer":0,"byteOffset":30856,"byteLength":32,"target":34962}],"scene":0,"scenes":[{"nodes":[0],"name":"sert"}],"extensionsUsed":["KHR_texture_transform"],"buffers":[{"byteLength":30888,"uri":"sert.bin"}]}